# xmcd
#
# Track frame offsets:
#	150
#	19520
#	35722
#	53390
#	69575
#	85537
#
# Disc length: 1351 seconds
#
# Revision: 1
# Processed by: cddbd v1.4PL0 Copyright (c) Steve Scherf et al.
# Submitted via: audiograbber 1.82.00
#
DISCID=3c054506
DTITLE=All 4 One - So Much In Love [CD Single)
DYEAR=1993
DGENRE=Pop
TTITLE0=So Much In Love (Remix)
TTITLE1=So Much In Love (Smooth Remix)
TTITLE2=So Much In Love (Groove Remix)
TTITLE3=So Much In Love (Especial Remix)
TTITLE4=So Much In Love (Acapella Mix)
TTITLE5=So Much In Love (Album Version)
EXTD=
EXTT0=
EXTT1=
EXTT2=
EXTT3=
EXTT4=
EXTT5=
PLAYORDER=
